<svg class="icon" viewBox="0 0 1024 1024" xmlns="http://www.w3.org/2000/svg" width="200" height="200"><defs><style/></defs><path d="M739.702 78.97c-5.018 2.264 2.846 1.562 2.637 5.264 12.436 6.165 22.405 14.848 34.222 23.69 2.094 1.567 3.46 3.892 5.263 5.264 3.676 2.8 9.63 4.802 13.158 7.895 7.854 6.886 13.123 15.76 21.059 23.69 7.337 7.332 17.53 13.614 23.695 21.059 3.405 4.116 4.726 10.992 7.895 15.795 3.277 4.956 11.602 5.545 7.895 13.163 15.698 5.812 33.234 8.966 50.018 15.79.83.338.486 2.1 2.636 2.632 1.552.39 3.805-.624 5.264 0 1.68.722 3.88 4.598 5.263 5.264 3.666 1.76 6.815.732 10.532 2.631 1.818.932 3.702 4.316 5.263 5.264 2.822 1.705 5.489.793 7.895 2.631 1.362 1.04 3.953 3.943 5.264 5.264 6.615 6.686 15.094 14.213 13.163 28.958-9.4 11.659-24.217 17.9-44.754 18.427-1.858 8.996 4.844 16.082 7.9 23.69 6.687 16.65 12.949 34.095 18.427 55.281.17.645 2.504.24 2.637 2.632.533 10.132 5.622 19.164 7.895 31.585 1.603 8.755 1.122 16.789 2.637 26.327.03.195 2.524.594 2.632 2.632.676 12.8 4.321 30.776 5.263 47.38 2.028 35.656.22 81.639-5.263 113.193-.425 2.453.722 5.525 0 7.9-3.262 10.778-7.004 35.912-10.532 50.018-7.122 28.503-17.715 56.171-28.954 81.602-5.703 12.908-11.888 27.469-18.427 39.49-.747 1.378-2.478-.337-2.636 2.632-.2 3.794-5.013 5.689-5.264 10.532-.184 3.497-5.063 4.122-5.263 7.895-.184 3.502-5.064 4.122-5.263 7.9-.041.763-2.028 4.393-2.632 5.264-1.884 2.719-5.806 4.92-7.9 7.895-.666.952.865 4.562 0 5.263-1.02.835-4.5 1.623-5.264 2.637-3.753 4.961-6.81 11.203-10.531 15.795-2.248 2.775-5.33 4.665-7.896 7.895-2.073 2.611-3.271 5.146-5.263 7.895-.655.907-4.9 1.823-5.263 2.637-.635 1.403.758 3.937 0 5.263-4.455 7.793-15.504 16.139-23.69 23.69-2.883 2.663-5.12 8.336-7.9 10.533-.922.732-4.542-.881-5.264 0-2.893 3.543-7.941 11.668-13.158 15.795-.922.732-4.547-.88-5.264 0-4.408 5.391-10.112 10.414-18.427 15.795-1.459.947.41 2.468-2.636 2.632-2.243.117-5.832 3.993-7.895 5.263-1.66 1.019-3.564 1.434-5.264 2.637-2.57 1.812-5.028 6.02-7.9 7.895-2.55 1.669-5.468 1.285-7.895 2.637-1.388.768.348 2.473-2.637 2.631.026 0-7.188 2.105-7.895 2.637-1.09.814-1.602 4.675-2.632 5.263-2.841 1.618-5.299 1.296-7.9 2.632-1.92.983-23.485 9.216-23.69 13.159-.307 5.821-7.352 1.382-10.532 5.263-2.862 3.497-14.3 6.953-23.69 10.532-22.118 8.417-50.898 18.11-78.976 23.695-2.458.487-5.504-.727-7.895 0-17.193 5.197-58.291 7.998-84.24 7.895-21.11-.082-47.697-2.263-68.444-5.263-2.432-.348-5.555.711-7.895 0-1.392-.42-2.734-2.652-2.631-2.632-8.92-1.515-18.663-.87-26.322-2.637-.533-.117-.333-2.508-2.632-2.631-.993-.057-7.347.67-7.895 0-2.483-3.042-7.905-.01-10.532-2.637-.215-.215.246-2.565 0-2.632-8.115-2.232-16.415-2.872-23.69-5.263-10.522-3.466-20.598-8.924-31.585-13.164-3.825-1.47-6.759-.778-10.532-2.631-1.3-.64.276-2.478-2.632-2.637.041.005-7.219-2.115-7.895-2.632-.86-.655.845-4.577 0-5.263-.527-.43-2.1.425-2.632 0-3.092-2.458-6.277-.615-10.526-2.632-1.285-.61-1.567-4.726-2.632-5.263-3.563-1.813-6.943-.666-10.532-2.637-1.382-.758.343-2.473-2.631-2.632-.374-.02-6.692-1.935-7.896-2.637-1.08-.624-1.715-4.848-2.631-5.263-3.2-1.444-7.716-.522-10.532-2.632-1.285-.967-1.413-4.403-2.632-5.263-.947-.67-4.557.86-5.263 0-.748-.922-1.72-4.639-2.632-5.263-.952-.656-4.562.855-5.263 0-1.777-2.171-3.062-7.644-7.895-7.9-3.067-.16-9.093-7.296-13.164-10.532-2.585-2.048-5.243-3.21-7.895-5.264-18.677-14.443-37.263-29.916-52.649-50.017-1.141-1.485-2.468.44-2.631-2.632-.031-.609-2.09-4.587-2.632-5.263-8.402-10.455-18.207-20.905-26.327-31.59-12.237-16.103-22.712-33.51-34.222-52.644-1.05-1.746-1.454-3.415-2.632-5.264-1.833-2.882-3.379-4.94-5.263-7.9-.569-.89-2.53-2.411-2.632-2.631-2.022-4.224-.86-7.926-2.632-13.164-1.884-5.57-7.413-13.48-10.531-21.053-1.536-3.738-2.78-10.563-5.264-15.796-.604-1.274-2.478.251-2.631-2.636-.19-3.62-3.385-8.105-5.264-13.159-1.69-4.546-.947-8.294-2.631-13.163-.338-.963-2.494.01-2.632-2.632-.036-.701.256-1.992 0-2.637-4.352-10.87-10.05-36.111-13.164-52.644-.476-2.529.548-5.38 0-7.895-.763-3.507-1.674-5.17-2.631-13.163-.098-.784.537-4.818 0-5.264-3-2.452-1.506-7.08-2.632-15.795-3.226-24.924-4.956-73.262-2.632-107.93 1.408-21.007 6.462-42.71 10.532-63.175.384-1.935-1.3-9.226 0-10.527.205-.205 2.575.23 2.632 0 .491-2.007-1.367-9.165 0-10.532 1.003-1.008 3.876-5.632 5.263-10.531 2.171-7.665 2.709-16.016 5.264-23.69.307-.922 2.493-.026 2.631-2.632.036-.697-.256-1.987 0-2.632 5.504-13.757 14.295-35.057 21.059-52.649 2.375-2.929 2.058-4.833 0-7.895-1.27-1.89-7.05-3.354-7.895-5.263-2.78-6.293-5.08-26.404 0-34.222 1.525-2.345 6.133-3.124 7.895-5.264 1.669-2.022 2.309-8.463 5.263-10.532 3.016-2.104 6.84-1.377 10.532-2.631-2.314-8.459 8.678-3.61 7.895-10.527 7.946-3.461 21.007-1.807 28.954-5.263 5.929-1.096-.395-14.434 7.895-13.164.64-8.003 8.857-10.112 13.163-15.795.707-.932-.875-4.547 0-5.264 2.171-1.776 7.644-3.061 7.895-7.895.18-3.363 18.873-21.934 23.69-26.321 1.88-1.71 5.95-1.142 7.895-2.632 3.636-2.78 8.085-11.495 13.164-15.795 3.507-2.97 8.817-4.741 13.164-7.895 1.792-1.3 3.584-4.035 5.263-5.264 1.618-1.182 3.569-1.377 5.263-2.631 1.608-1.193 3.728-4.306 5.264-5.264 4.68-2.908 12.554-5.279 15.79-13.158-19.303-4.71-37.335-6.8-55.281-2.632-8.36 1.94-16.04 6.64-23.69 10.527-7.409 3.768-16.476 7.695-21.059 13.163-6.082-.742 2.402-6.139 2.632-10.531.04-.804 2.017-4.342 2.632-5.264.65-.973 4.879-1.782 5.263-2.632.558-1.239-.835-4.229 0-5.263 3.215-4.004 8.847-7.378 13.163-13.163 1.895-2.54 3.139-5.515 5.264-7.895.517-.579 2.104-5.028 2.632-5.264 1.239-.558 4.229.835 5.263 0 2.068-1.659 3.118-6.533 5.263-7.895 3.466-2.201 11.044-3.487 15.795-5.263.687-.256.6-2.125 2.632-2.632 8.858-2.212 16.794-3.041 28.954 0 2.324.579 4.516 1.787 7.895 2.632 2.688.67 1.28 2.007 2.631 2.631 9.467 4.388 23.266 12.181 26.327 26.328 3.016-1.752 4.726-3.554 7.896-5.264 1.822-.983 5.785-1.183 7.895-2.632.855-.588-.763-4.505 0-5.263.89-.896 4.213.748 5.263 0 1.46-1.044 3.896-4.546 5.263-5.263 4.055-2.12 10.803-2.084 15.795-5.264 2.919-1.858 12.514-4.126 18.427-7.895 4.158-2.647 14.956-5.012 23.69-7.895.917-.302.036-2.498 2.632-2.631 6.083-.323 7.85-.507 13.164-2.632 3.24-1.295 15.18-5.96 23.69-7.895 1.981-.45 9.185 1.341 10.532 0 .194-.195-.22-2.586 0-2.632 2.457-.548 5.489.727 7.895 0 3.092-.937 16.389-3.993 26.322-5.263 67.722-8.684 150.22-.753 205.327 15.795 14.649 4.398 29.118 10.43 42.117 15.79.948.39 4.67-.732 5.264 0 .256.312-.323 2.478 0 2.632.962.45 4.638-.768 5.263 0 .25.302-.323 2.483 0 2.632 3.686 1.694 6.85.711 10.532 2.631 1.352.702-.318 2.478 2.637 2.632 3.794.2 5.688 5.012 10.532 5.263 2.554.133 2.042 3.175 2.631 5.264 3.881-1.849 4.67-7.568 7.9-10.532 1.94-1.782 6.006-.87 7.895-2.632 2.822-2.626 4.332-5.56 10.532-7.895.932-.348 4.685.712 5.264 0 2.785-3.405 5.376-1.275 10.531-2.632.666-.174.226-2.503 2.632-2.631 16.584-.87 36.777 10.22 50.017 23.69 2.064 2.1.758 5.396 2.637 7.895 2.002 2.667 9.774 6.231 13.159 10.532 5.401 6.85 8.202 16.066 13.163 21.058-.486 2.243 1.024 2.484 2.632 2.632-2.857 3.901-7.67-1.044-10.532-2.632-1.71-.952-3.763-4.428-5.263-5.263-.963-.532-4.598.809-5.264 0-1.894-2.32-11.858-7.9-18.427-10.527-.937-.373-4.67.727-5.263 0-.174-.215.215-2.575 0-2.631-5.673-1.45-15.15-2.458-21.059-2.632-7.28-.246-13.496-.041-21.063 2.6zm-15.795 173.738c24.084-1.726 56.565-1.04 76.339 0 2.073.107 2.396 2.59 2.637 2.632 2.636.44 1.996-2.504 2.631-2.632 2.442-.487 2.31 2.6 2.637 2.632 6.042.609 12.431-.917 18.427 0 5.279.808 16.287 4.725 18.427 5.263 1.654.415 3.6-.374 5.263 0 13.338 2.995 27.53 7.72 36.854 10.527 2.417.727 5.483-.727 7.9 0 .988.302 3.891 4.807 5.263 5.263 21.776 7.235 55.665-1.884 57.913-18.427 1.264-9.329-3.482-7.537-5.264-10.532-2.324-3.901-2.078-7.434-5.263-10.532-3.978-3.875-9.385-6.502-10.532-7.895-.624-.768-4.31.45-5.263 0-.323-.153.256-2.324 0-2.631-.656-.804-4.301.527-5.264 0-.358-.195.282-2.294 0-2.632-.624-.768-4.305.45-5.263 0-.322-.154.256-2.324 0-2.632-.635-.778-4.306.471-5.263 0-.333-.164.26-2.314 0-2.631-.625-.768-4.306.45-5.264 0-.322-.154.256-2.325 0-2.632-.614-.748-4.316.425-5.263 0-.312-.138.246-2.335 0-2.632-.312-.379-10.44-2.596-10.527-2.631-8.714-3.487-22.958-6.41-26.327-10.527-.548-.67-6.907.051-7.9 0-2.32-.123-2.073-2.499-2.632-2.632-3.19-.758-7.244.174-10.531 0-2.094-.107-2.366-2.585-2.637-2.631-3.344-.584-7.127.179-10.527 0-2.1-.108-2.365-2.586-2.637-2.632-3.343-.584-7.132.179-10.532 0-1.91-.103-2.6-2.632-2.631-2.632-4.137-.527-2.463 3.425-5.264 0-.435-.532-4.49.082-5.263 0-15.027-1.602-32.128-3.758-44.749-2.632-12.242 1.091-23.716.845-36.854 2.632-5.985.814-12.64 4.122-18.426 5.264-11.295 2.232-22.001 3.532-26.327 5.263-5.32 2.125-7.087 2.314-13.164 2.632-2.534.133-1.797 2.375-2.632 2.631-7.705 2.366-13.854 2.54-21.058 5.264-7.486 2.933 4.52 4.93 5.263 5.263.563.256 2.069 4.67 2.637 5.263 4.618 4.9 8.965 6.733 10.527 15.796 1.51 8.75-.057 16.358-2.632 26.327 22.948-2.78 40.525-8.904 63.17-10.527zM42.117 263.24c.359 1.218 2.478-.343 2.632 2.631.363 6.928 14.69 13.015 18.427 13.159 6.036.235 11.366-4.547 13.163-5.264 1.961-.783 5.253.087 5.264-2.631-11.316-3.712-20.527-10.358-23.69-23.69-1.547-6.513 3.43-14.598-2.632-21.06-8.848 9.427-17.347 22.498-13.164 36.855zm352.743-34.222c-9.334-6.907-21.663-11.592-31.586-15.796-10.772-4.556-22.61-9.59-34.222-13.158-21.499-6.615-42.562-10.455-65.812-13.164-31.478-3.67-77.86-1.607-110.562 5.264-3.61.758-10.132 1.874-13.158 2.632-1.582.394-2.519 2.6-2.632 2.631-11.453 2.954-23.572 2.483-31.59 10.532 19.748 5.94 25.958 35.44 13.163 52.649 13.876-3.825 25.99-6.088 36.854-7.895 8.704-1.449 11.592-1.966 13.164 0 1.418 1.771 3.128-2.709 2.631-2.632 7.383-1.167 13.01.287 18.427 0 1.685-.092 2.903-2.652 2.632-2.631 3.85-.272 8.724 2.78 13.163 2.631 2.678-.092 3.078-2.155 5.264-2.631 12.134-2.637 18.314 3.051 26.327 2.631 1.193-.061 3.548-2.585 2.632-2.631 3.425.184 5.34 2.12 10.531 2.631 4.977.492 10.302-.491 15.796 0 17.797 1.598 38.471 6.334 55.28 10.532 6.242 1.562 11.75 3.538 13.159 5.263.527.64 4.382-.24 5.263 0 6.006 1.639 11.694 3.349 18.427 5.264 10.86 3.087 14.848 4.992 23.69 2.632 6.825-1.818 11.894-3.712 13.159-5.264.593-.727 4.331.374 5.263 0 6.61-2.647 9.436-7.634 13.163-10.532 1.562-13.906-8.832-21.862-18.426-28.958zm194.795 15.795c-4.787 7.173-.128 21.202 0 23.69.174 3.349 9.56 10.476 10.532 10.527 2.882.153 1.362 2.027 2.637 2.631 8.064 3.825 11.663-1.27 15.79-5.263-9.928-2.79-18.37-10.44-21.054-21.058-1.566-6.185 3.354-13.415-2.636-18.427-1.352 3.282-3.39 5.079-5.269 7.9zM168.474 702.848c4.09-9.36-8.94-1.592-7.895-7.9.112-3.62-1.24-5.78-2.632-7.895 1.464.01 2.99-2.135 0-2.637-5.31 6.63 1.454 18.038 10.527 18.432zm637.035-7.9c4.352-.041 1.475-7.301 5.263-7.895 2.77-.144 2.074-3.374-2.631-2.637-.825 3.564-3.748 5.033-2.632 10.532zm-2.626 7.9c-4.352-.041-1.475-7.306-5.264-7.9 1.577 4.69-7.716 10.936 0 13.163.589-2.043.072-5.196 2.632-5.263-.01 1.464 2.13 2.985 2.632 0zm-107.935 86.866c-2.181 1.546.84 4.306-2.632 5.263-2.81.784-4.208-4.219-5.263 0 4.04.63.384 4.337-2.637 5.264-2.642-.005-3.128 2.135-5.263 2.636-3.62.113-5.78-1.239-7.895-2.636.338 4.73-2.617 6.159-7.9 5.263-1.275 3.108-2.806 5.97-5.259 7.9-10.045.108-16.747 12.923-26.327 5.264-4.219 4.556-9.84 7.71-15.795 10.531-6 3.615-9.897-6.789-10.532 0 7.521 1.373-4.25 3.897-5.263 5.264-7.92-.22-15.33 4.372-23.69 5.263-5.945.63-10.4-1.172-15.796 0-3.4.737-6.615 4.552-10.532 5.258-2.411.44-3.353-2.278-5.263-2.631.103.02-.333 3.092-2.637 2.631-.972-.194.43-3.635-2.631-2.631 1.147-.374-2.98 2.97-2.632 2.631-6.293 6.032-11.735.103-18.432 0-9.375-.128-17.224 4.506-26.322 5.264-6.83.573-14.75.732-21.059 0-2.13-.246-2.17-2.514-2.631-2.632-5.34-1.321-13.123-2.135-18.427-2.637-3.328-.312-5.115 2.919-10.532 2.637-1.771-.097-2.785-2.647-2.632-2.637-3.082-.287-4.04 4.147-7.895 2.637-1.484-.579-2.211-5.914-5.263-5.263-4.46 6.533-14.807.48-18.427 0-6.354-.84-13.85 1.628-10.532-5.264-6.605 3.533-20.9-1.792-23.69-2.631-4.465-1.352-7.48-1.414-10.532-2.637-1.966-.784-5.253.087-5.263-2.632 3.184.266 1.618-3.83 0 0-3.154-1.06-14.413-1.31-15.795-2.637-.548-.527.64-5.022 0-5.263-7.578-2.831-14.956-.42-18.427-2.632-5.315-3.39-8.776-5.468-15.795-5.263.112-3.625-1.24-5.78-2.632-7.9-13.266 1.776-13.107-11.443-23.69-5.264-5.801-13.49-25.58-13.025-34.222-23.69-1.234-1.52.44-5.611-2.632-5.263-.143 2.77-3.374 2.068-2.632-2.632-4.116.604-6.144-.88-7.895-2.637-4.27-4.27-10.747-.778-5.263-7.895-8.894.999-11.228-4.567-15.795-7.9.701-5.207-2.76-5.852-5.264-7.895-.875-.717.707-4.337 0-5.263-.906-1.188-4.193-1.48-5.263-2.637-1.557-1.67-2.56-7.757-5.263-7.895-3.052-.159-1.168-1.659-2.632-2.637-7.43-4.925-11.55-9.431-15.795-15.79-3.108-.379-5.97-4.69-7.895 0 2.78 2.478 5.212 5.325 7.895 7.895 2.636 2.524 6.937 3.671 7.895 7.895 3.707 5.074 6.958 10.593 7.895 18.432 1.613 3.65 10.132.394 10.532 5.263-5.643 6.974 1.146 4.537 7.895 10.532 6.594 5.852 8.821 13.942 18.426 13.159-1.264 11.243 5.059-2.3 5.264 5.263.072 2.642-2.181 3.133-2.632 5.263 8.044-1.9 9.595 2.688 15.795 2.632-3.2 7.573 8.75 5.54 10.532 7.9 2.227 2.954-4.034 2.32 0 5.264-1.449-1.06 5.407-2.156 7.895 0 1.342 1.162 1.342 7.065 2.632 7.895 2.882 1.853 9.103 2.406 13.158 2.636.277 3.298 3.292 3.646 5.264 5.264.885.722-.84 4.475 0 5.263 1.408 1.316 6.251-1.065 7.895 0 2.145 1.388-.988 4.634 2.631 5.264.22.035 2.494-4.736 5.264-2.637 1.997 6.779 8.402 9.15 18.427 7.9.143 3.364 3.374 3.645 2.631 7.895 3.272 1.572 10.245-2.069 13.159 0 .645.46-4.409 8.146 0 2.637 1.218-1.526 3.533 2.498 2.631 2.631 5.254-.747 2.786-1.28 7.895 0 3.385.845 5.576 2.048 7.895 2.632 7.384 1.848 5.49 3.82 10.532 5.263-.425-.117 2.765-3.025 5.264-2.631.88.138 1.96 4.587 5.263 2.631v7.9c15.053-1.894 23.516 2.811 36.854 2.632.01 2.647-2.135 3.134-2.632 5.264 6.18-.84 9.882-4.158 18.427-2.632-.061.41.077 5.258 0 5.263 10-.45 16.83-4.992 21.059-2.636.399.225-.364 5.227 0 5.263 8.105.85 12.902-2.575 21.058-2.632 3.16-.02 3.907 2.289 7.895 2.632 11.827 1.009 22.462 1.418 31.59 0 1.014-.154-.465-3.251 2.632-2.632.963.19-.41 3.666 2.637 2.632-1.106.374 2.965-2.95 2.632-2.632 5.227-5.012 6.482-.737 10.532 0-.098-.02.332-3.092 2.636-2.637.973.195-.43 3.64 2.632 2.637-1.147.374 2.985-2.97 2.637-2.637 7.04-6.743 13.317 4.327 18.427-2.631-1.46.01-2.99-2.135 0-2.637 8.821 3.558 9.876 1.495 13.158-2.632h21.059c-.343-13.112 6.886-8.637 15.795-7.9.676-8.008 6.113-7.49 7.895-5.263 1.966 2.452 3.743-7.824 7.9-2.632 1.29 1.613 3.4-2.596 2.632-2.632 2.201.108 2.237 2.55 2.637 2.632 3.768.753-.313-4.378 2.631-5.263 3.144-.948 13.133 2.841 13.164-2.632-4.04-3.42-.39 0 2.631 0 4.767 0-1.264-4.383 2.637-5.263 2.867-.65 4.163 4.116 5.264 0-1.465.005-2.99-2.135 0-2.637 4.608-6.866 10.03 3.574 10.526-2.632-1.459.005-2.985-2.135 0-2.637 8.223-.594 13.906-11.643 21.059-5.263-1.485-5.335 3.118-3.461 5.263-5.263 1.111-.932 1.7-4.122 2.637-5.264.732-.89 4.408.81 5.263 0 .794-.752-.476-4.208 0-5.263.16-.353 4.798-2.32 5.264-2.632 2.841-1.879 4.95-3.732 7.895-5.263 4.08-2.12 9.43-1.357 13.158-5.263-6.16-1.915 6.743-12.355 10.532-5.264-.824-10.04 8.28-2.253 2.637-7.895-1.31-1.31 6.605-8.54 7.895-7.9 14.7-2.852 17.029-18.069 28.959-23.69 4.188-6.35-1.27-8.141 0-10.532-.026.04 5.166-5.202 5.263-5.263 2.452-1.639 6.671.102 7.895-2.637-2.253-8.397 4.147-8.141 5.263-13.159-15.928 4.255-18.293 22.073-34.222 26.327.38 9.41-5.284 13.517-10.532 18.427-.937.876-4.331-.875-5.263 0-7.665 7.163-3.307 12.493-7.9 7.9-1.31-1.315-4.198 5.504-2.632 7.895-8.586 1.603-12.237 4.567-15.795 7.9-1.26 1.178-3.758 4.757-5.263 5.259-3.292 1.11-6.037-1.997-7.895-2.632 1.126 8.924-4.71 5.688-7.885 7.926z" fill="#2c2c2c"/></svg>