<svg class="icon" viewBox="0 0 1033 1024" xmlns="http://www.w3.org/2000/svg" width="201.758" height="200"><defs><style/></defs><path d="M956.375 516.167c-8.733-26.479-28.922-55.977-56.48-66.717 4.69-6.039 12.769-10.734 19.151-16.093 12.116-8.722 20.189-22.138 29.937-31.517 7.717 36.206 8.4 76.445 8.726 114.327h-1.335zm-8.079 71.761c-1.01 3.02-1.663 6.383-2.672 9.728-15.728 7.528-39.405 14.458-56.153 5.154l.543-2.344c8.411-1.088 15.633-6.547 20.306-13.534 1.686-6.039-3.028-11.415-8.05-13.429-2.514-1.419-4.83-1.018-6.96-.047 1.756-11.356 2.94-22.894 3.669-34.547 5.222-5.156 9.339-11.003 10.326-18.718 6.061-16.093 1.697-36.544-4.037-52.305l1.009-3.019c18.831 18.78 30.947 42.262 47.397 62.713l-5.378 60.347zm-13.097 70.755c-17.797-7.697-40.058-7.028-60.539-7.692.887-2.316 1.779-4.631 2.625-6.969 20.487-10.235 45.426-11.084 63.619-27.259h3.384c-.683 15.087-4.725 28.504-9.089 41.92zm-8.073 22.464c-19.834 40.92-35.636 85.847-69.248 119.046-12.314-16.163-23.456-35.374-41.726-46.958 2.426-3.042 4.888-6.056 7.222-9.175 34.89-21.696 66.338-51.875 103.753-67.607v4.695zM788.6 858.2c-3.471-19.922-11.854-37.807-18.498-56.46a395.386 395.386 0 008.143-7.441l.613.534c7.064-11.758 16.479 3.672 25.894 3.02 15.114 4.678 37.982-4.026 46.737 12.073-21.525 15.412-38.336 41.565-62.889 48.274zm-91.433 45.259c6.218-19.24 21.053-38.487 19.495-62.003 9.41-5.801 18.568-11.968 27.417-18.537 11.836 14.203 22.464 29.231 33.77 43.322-25.894 12.765-53.452 25.49-80.681 37.219zm-16.806-10.722c-11.789 12.41-29.604 10.065-46.084 11.397l-7.041-3.345c24.202-3.683 50.423-11.741 62.86-35.213.431-3.147.653-6.365.758-9.611 41.099-21.333 76.101-48.328 105.581-80.471-94.631 90.461-104.257 105.712-116.076 117.243zm-73.284 45.933c-.356-7.703 6.025-16.081 8.044-24.808 14.461 4.031 30.947 5.696 46.744 4.701-17.496 8.705-37.328 12.068-54.787 20.108zm-92.25-69.131c-36.471 0-71.669-5.522-104.827-15.732-48.073-62.109-76.021-131.217-88.872-208.343 31.063-16.222 61.537-34.031 95.406-43.608-.35 1.461-.531 3.049-.344 4.87 4.871 47.203 18.941 90.636 37.124 133.987.397 1.938.909 3.858 1.715 5.766 11.352 27.014 29.056 51.014 48.557 72.71 5.664 6.307 14.77 4.829 20.628 0 19.938-16.46 34.462-40.058 44.129-63.93a15.385 15.385 0 003.111-6.64c20.485-41.796 36.271-94.131 35.781-144.801 0-.105-.028-.187-.028-.279.011-.018.028-.023.046-.04 35.035 8.466 68.584 20.538 102.05 33.669-19.892 79.011-46.795 159.086-102.511 220.287-27.576 7.673-59.241 12.084-91.936 12.084h-.028zm74.556 21.801c1.144-.227 2.292-.407 3.43-.639l2.799 6.062c-2.169-1.018-4.193-3.107-6.23-5.422zm-15.482 2.763c1.365-.209 2.695-.501 4.055-.722.518 2.368 1.172 4.707 1.534 6.743-2.094 0-3.786-3.008-5.587-6.022zm-16.992 2.189c2.1-.227 4.177-.535 6.264-.797.525 4.456 1.079 8.982 1.855 13.341l-8.12-12.544zm24.272 48.761c-11.433 6.366-24.885 8.041-38.692 8.041 20.516-6.37 43.383-17.106 57.161-36.887-1.662 12.41-8.732 21.469-18.469 28.847zm-42.7-46.603c-5.734 6.353 0 14.086-1.697 21.783-3.028-6.697-3.682-14.76-8.074-20.788-16.45 0-12.087 20.114-17.815 30.517-6.061-10.065.356-32.856-17.815-30.516l-8.079 19.117c-2.665-7.749 4.69-15.75.006-21.195 9.853.756 19.776 1.262 29.821 1.262 12.034 0 23.917-.628 35.672-1.71-2.771 6.085 1.154 15.464 1.429 20.975-5.728-5.359-5.396-16.436-13.447-19.445zm-13.784 83.816l-1.032-3.345h1.691c-.333 1.006.683 2.681-.659 3.345zm-8.074-53.306l-2.374-1.338 2.374.652v.687zm-44.462-32.744c2.876.32 5.769.576 8.663.832-4.772 4.783-5.991 11.794-9.578 17.484-1.954-4.073 1.459-12.812.916-18.316zm-13.668-1.735c1.767.257 3.564.442 5.344.675l-6.067 11.334c-1.366-3.591.064-7.965.723-12.009zm-15.201-2.6c1.329.25 2.672.478 4.007.716-1.195 1.862-2.49 3.717-4.316 5.172.909-2.182.916-4.16.309-5.887zm-16.433 1.862l2.187-4.84c.84.192 1.68.396 2.52.581-1.377 1.839-2.648 3.742-4.707 4.259zm0 36.218l-5.378-17.768c16.123 22.138 41.334 32.524 65.894 39.569-23.55 3.345-45.728-3.345-60.516-21.801zm-67.586-16.099c15.471-.326 32.276 1.012 47.391-4.027l9.117 26.508c-18.853-7.383-37.684-15.103-56.508-22.481zm-38.081-67.543c3.892 2.269 7.782 4.526 11.761 6.656.514 4.555 1.691 9.018 3.78 13.266 15.471 18.128 35.66 28.182 57.844 31.528-15.797 3.345-35.303 1.35-49.082-7.372-12.542-11.991-22.237-27.154-24.302-44.078zM245.3 858.2l1.669-4.696c10.307-10.967 20.229-24.216 30.834-36.608 41.076 32.362 89.965 56.873 143.257 70.324-114.847-28.468-103.064-8.751-95.732 9.543-27.586-10.055-52.139-28.166-80.028-38.563zm-10.418-9.728c-10.098-2.002-18.172-10.397-26.578-16.762l-35.635-33.856c-.653-6.038 6.387-7.388 10.78-8.721 19.425 2.199 37.223-1.758 53.836-8.78 5.099 5.294 10.319 10.461 15.715 15.459-6.761 17.268-14.408 34.129-18.118 52.659zm-23.194-86.836c-2.375 10.391-15.143 9.384-22.867 13.736 1.336-6.039 6.714-14.406 13.778-16.756 4.037-1.35 6.714 2.007 9.089 3.019zm-48.43 25.809c-31.926-37.213-48.405-81.141-64.558-124.73l.683-.687c28.566 15.093 58.824 38.237 81.365 56.332l14.385 9.996c29.194 43.003 65.481 78.819 107.539 106.608-113.723-80.543-123.721-62.372-137.067-47.519h-2.346zM91.303 642.59c-4.69-13.422-7.391-27.84-7.391-43.601 19.402 15.261 43.191 19.991 63.928 31.715.584 1.821 1.238 3.608 1.844 5.417-19.227-.221-40.676.186-58.381 6.47zM77.525 511.471l1.015-5.02c18.497-17.769 28.234-38.901 46.737-55.326-3.36 9.716-3.034 23.134-6.388 33.868 1.692 3.356-.356 10.054 1.343 14.411-.105 9.106 4.117 16.099 9.771 22.354.221 12.026.956 23.925 2.269 35.66-7.041-1.297-13.387 4.381-15.073 10.402-1.01 7.046 3.686 14.068 10.425 16.093 3.173.279 6.521.913 9.128 2.949.087.455.158.92.245 1.379-17.897 6.429-38.243.547-53.766-7.691-5.378-21.457-2.678-46.603-5.706-69.079zm53.452-43.583c.292-1.292 1.12-1.914 2.1-2.374-.082.634-.163 1.263-.239 1.897-.671.227-1.325.401-1.861.477zm-1.663 9.728c-.38-1.484 1.003-2.648 2.648-3.346-.065.605-.141 1.198-.199 1.804l-2.45 1.542zm1.044 16.832c-.017.308-.028.616-.047.924h-.343c.064-.32.274-.61.39-.924zm-1.044-7.116c-1.365-.337-3.028-4.015 0-5.021a19.576 19.576 0 012.093-1.606c-.158 1.762-.274 3.532-.402 5.301-.572.465-1.161.953-1.691 1.327zm-55.826 9.728c3.354-39.244 2.018-80.482 13.808-116.008 11.405 18.094 29.575 36.887 46.031 51.624-28.239 10.065-51.432 34.205-57.464 63.377-.356 1.007-1.365 1.007-2.375 1.007zm69.639 117.51l-11.468-8.192c0-3.515 3.319-6.563 7.209-9.234a377.366 377.366 0 004.259 17.426zm-13.158-323.736c4.036 11.066 4.718 24.477 17.162 30.51-3.354 29.847-17.815 59.351-6.738 91.218l-42.671-39.57c6.025-29.51 11.731-60.032 32.247-82.158zm55.825-83.491c.326 16.099-3.028 37.219 15.114 44.928-2.363 10.088 4.725 18.328 11.264 25.437-1.202 1.53-2.432 3.037-3.61 4.584-3.291.611-6.756.902-9.998 1.507-14.788-14.08-32.959-25.501-54.134-19.456 5.372-21.457 27.23-38.888 41.364-57zm32.93 18.438l-11.072-18.438c12.093 11.56 22.313 25.588 31.051 40.082-32.005 32.887-57.685 72.114-74.955 115.598l62.402-124.488c-8.079-4.702-16.153-9.734-24.233-14.429 5.047-.664 11.79 4.695 16.807 1.675zm-2.998-48.29c13.096-8.709 25.538-18.775 39.317-25.809l1.009 1.006c-10.091 12.737-14.105 27.159-9.741 43.922 6.031 8.722 19.156 13.417 18.502 25.146l-16.159 1.688c-9.736-16.779-27.907-26.496-44.363-33.198-2.701-7.378 7.397-8.373 11.434-12.754zm47.396-22.453c5.699 4.685 9.409 12.411 6.382 20.114-1.691 1.344-4.69.337-7.064.669-9.059-6.709 3.383-12.736.683-20.783zm66.216-39.563l12.797 40.232c-7.075 8.471-13.521 17.194-19.209 26.241-50.408 29.392-92.243 68.071-124.354 114.044 78.784-84.18 78.545-84.913 78.329-85.628 7.064-5.37 13.778-12.41 15.47-20.788-2.345-16.762-14.787-29.172-22.867-43.596 16.456-17.106 38.663-23.476 59.833-30.504zm96.834-32.198c-3.355 12.084-10.39 25.472-6.383 40.233-26.222-1.67-46.411 10.386-66.25 23.477l-11.405-41.244c29.226-4.364 54.134-19.781 84.036-22.464zm13.784 5.021c13.808-12.067 29.604-19.444 47.419-21.801-13.125 7.395-28.595 13.422-40.355 26.496-5.046 11.404-9.742 23.471-15.114 33.879-4.393-13.753.326-27.84 8.05-38.574zm81.358-22.79c28.601 5.359 55.832 15.413 75.992 39.569 4.69 6.366 7.064 14.08 7.064 22.447-4.877 3.346-9.229 7.68-14.461 10.491-.28-.052-.572-.099-.851-.152l11.275-15.016-1.365-1.688c-4.007 3.363-9.059 6.72-12.086 10.409.682-4.696 5.051-10.409 8.079-15.104l-1.692-1.659c-5.378 3.003-9.059 9.717-14.467 12.067l9.444-17.1-1.365-1.35-13.778 12.737c2.018-6.028 5.699-11.386 8.732-16.762l-1.691-1.688c-5.022 4.707-7.041 10.747-12.769 15.098.355-5.695 5.372-12.73 8.073-19.101l-1.662-1.688c-6.412 4.027-7.747 11.729-12.799 16.762.356-5.702 4.725-13.411 7.07-20.107-1.009-.682-1.691-2.014-3.028-1.35-4.042 5.702-6.713 12.072-11.404 17.449-.683-7.395 8.05-15.093 5.017-22.481-6.714 5.032-7.065 14.085-12.111 20.124-2.678-8.058 16.474-26.152-4.043-28.165-5.022 2.013-2.998 8.041-5.705 11.404-1.663-5.039 3.033-9.053-1.003-13.08-4.697 3.689-3.687 11.066-7.071 16.1-.327-4.696.356-13.418-3.354-18.456-4.696 3.363-4.696 11.404-3.028 17.106 1.337.343.351 2.018.683 3.038l-1.698 1.657c-3.354-6.366-3.028-14.08-6.382-20.107-6.055 3.007-.682 10.717-.682 16.081l-1.01.682-4.689-14.423c-4.697.668-10.098 1.332-12.116 6.366l6.411 21.131c-6.738-5.033-6.055-15.43-12.115-21.131-3.682 7.714 5.051 15.429 3.353 23.475-5.372-5.701-5.372-13.731-10.75-19.444l-2.34 2.677 7.391 20.124c-6.387-3.7-7.064-12.747-13.125-17.768-3.028 6.697 3.383 13.4 5.734 20.125-5.051-2.013-8.078-10.734-12.798-14.435-2.346 5.37 4.037 11.741 6.411 17.438l-13.808-12.067c-.653 6.708 6.387 12.067 8.079 18.781-5.052-3.689-8.733-8.384-13.778-13.079-3.716 5.702 5.372 10.059 5.699 16.081-3.681.681-8.733-11.06-13.778-8.023l10.721 15.378c-.017 0-.04 0-.058.006-5.344-1.39-10.337-7.703-15.353-11.375 7.035-36.217 47.717-50.63 78.984-58.001zm95.172 41.908l-.682 21.795h-1.692c-8.078-23.808-24.879-49.96-50.097-60.357 21.532 3.688 46.417 15.418 52.472 38.562zm88.732 8.059c-4.012 13.073-7.723 26.135-12.769 38.557h-2.351c-14.128-12.079-29.243-22.138-47.747-24.151-5.372-.669-8.073-.669-13.778-.669 1.692-14.406-1.691-29.853-5.372-41.919 28.893 5.701 54.134 20.124 82.017 28.183zm13.125 9.711c21.17 6.045 41.009 15.418 58.172 31.517-6.062 14.76-20.85 25.821-24.203 41.576-.683 11.077 9.386 14.429 13.422 22.481.362 1.181.461 2.292.461 3.375-42.76-37.021-94.39-65.03-151.208-80.419 92.679 22.955 73.271 2.622 50.176-12.563 43.439 20.863 47.476 7.11 53.181-5.969zm64.552 42.588c1.015 5.038 1.015 10.059 3.028 14.423.659 3.345-3.028 6.027-5.372 6.37-2.346 0-4.393-1.006-5.729-3.025 0-7.045 1.691-14.761 8.073-17.768zm11.108 32.862c-2.346 5.02-5.728 11.403-11.108 13.76-9.082.989-18.171-3.363-21.198-12.084v-1.675c6.737.343 11.789 5.363 15.499 10.74 5.7-3.706 10.395-8.728 16.807-10.74zm44.369-.664c.676 2.013 2.344 3.346 1.686 5.684-16.479 6.709-34.978 13.417-45.075 30.522-5.017-.668-10.745-2.344-15.441-1.675-3.711-15.756 20.493-15.756 20.166-31.185 3.71-14.423-5.051-25.828-8.733-37.894 16.807 9.39 31.921 22.463 47.397 34.548zm11.427 62.696c8.733-11.386 11.107-30.504 4.037-43.258 15.803 19.788 33.974 40.583 44.369 63.384-21.829-5.703-42.019 1.657-57.488 16.098l-8.838-1.768c-1.231-1.781-2.514-3.532-3.774-5.295 3.488-4.276 8.948-8.181 11.271-13.061-.677-7.716 2.707-14.081 10.424-16.1zm6.294 74.508c-1.015-1.926-1.966-3.892-3.009-5.8 3.96-7.709 3.587-18.368 7.139-26.119.327 6.028-.356 14.75-2.345 21.121l1.691 1.688c14.759-5.033 10.069-20.789 16.807-30.861 1.336 4.37-2.375 11.741 0 16.1 3.354-3.689 7.07-6.697 11.434-8.709-2.375 6.027-8.079 8.365-11.434 13.742 5.046 1.343 10.424-2.357 15.446-3.352-12.997 5.074-24.57 13.01-35.729 22.191zm31.571 273.401l9.555 7.872c-4.282 3.985-9.561 7.954-15.243 11.758a375.746 375.746 0 005.688-19.63zm-19.048-247.288c3.816-4.317 7.491-8.611 11.113-12.097.216 17.048 1.014 32.384 2.281 47.96-13.644-42.335-32.854-79.123-57.194-111.869zm-9.553-20.33c.916-.087 1.855-.082 2.824.197-.776.251-1.564.495-2.34.74-.157-.314-.326-.623-.484-.938zm-38.186-103.424c2.018-7.045 8.762-10.065 12.799-16.093h2.344c-3.353 6.028-6.708 15.418-15.142 16.093zm12.799 2.345h2.344c-4.036 5.359-11.077 5.702-16.806 8.722-4.427 4.818-7.928 9.99-11.585 15.098-32.041-37.354-70.724-67.972-114.37-90.257 117.305 74.862 126.434 65.738 140.417 66.437zm-170.353-81.506c-1.144-.483-2.322-.902-3.472-1.368 1.75-1.117 2.632-2.512.315-4.974-2.303.628-4.509 1.624-6.894 2.379-.677-.262-1.348-.534-2.025-.797l3.22-2.263c-1.009-2.339-6.387-8.378-11.107-4.678-7.066 3.754-15.3 6.424-24.022 7.534 17.219-5.794 15.428-6.428 13.61-7.01 1.627-1.03 3.248-2.077 4.713-3.218 18.142-1.007 35.631 3.019 45.045 19.444 1.663 1.868 3.11 3.876 4.428 5.964-6.528-3.27-13.136-6.394-19.863-9.304.356-.419.718-.837.975-1.356-1.587-1.1-3.227-.937-4.924-.354zm-268.565-10.519c-.846.278-1.686.569-2.531.854-3.052-1.966-5.659-5.463-8.756-.703l3.319 2.542c-1.581.558-3.19 1.064-4.76 1.641-1.593-.402-3.074-.593-4.258-.158.35.53.817.908 1.231 1.35-6.697 2.525-13.289 5.259-19.799 8.139 3.436-5.405 7.683-10.432 12.834-14.848 9.747-8.738 23.875-6.72 36.319-8.069 1.154 1.5 2.636 2.728 4.206 3.886-1.325.367-2.643.745-3.967 1.123-5.512-2.891-11.229-4.899-17.046.366l3.208 3.876zm-135.673 53.462c-5.705-4.014-8.733-10.397-9.748-17.105 6.061 3.363 12.094 7.051 17.139 13.09 4.036-4.706 9.741-9.727 16.153-10.734-1.01 4.695-5.047 11.404-9.772 13.743-5.7-2.013-8.727 4.352-13.773 1.006zm-64.558 98.537v-.622l.122.425-.122.198zM155.145 651.38c17.852 45.79 42.472 85.144 73.084 118.974-62.437-77.999-68.549-75.323-74.12-71.858-5.971-17.005-22.45-32.098-40.266-43.839 13.119-2.467 27.16-3.101 41.301-3.276zm2.41-316.944h1.662c2.766 4.312 5.916 8.506 9.305 12.549-5.215 10.671-9.917 21.632-14.14 32.827 2.444-14.953 5.407-30.103 3.173-45.376zm22.044-8.303c-.309.541-.63 1.076-.939 1.617-1.47-.698-2.928-1.437-4.299-2.379 1.984-.715 3.675.285 5.239.762zm-15.004-36.968c1.692 6.366 6.411 17.768 15.471 21.795l-.659-22.464c3.623 7.912 2.537 18.857 6.469 26.798-1.394 2.287-2.689 4.637-4.037 6.952-6.282-9.297-16.391-17.012-25.976-21.015l5.728-.681-11.433-15.418c5.705 1.35 9.059 7.716 13.778 11.404 3.36-1.67 0-4.689.659-7.372zm102.3 518.922c-4.923 6.144-9.642 12.369-13.515 18.938 1.253-7.772 4.363-15.604 8.75-23.057 1.581 1.378 3.156 2.769 4.766 4.119zm208.732-135.406c-.192.488-.426.919-.583 1.448-1.913 6.569-5.257 13.422-8.774 20.422-8.884-24.937-15.785-50.374-19.472-76.835 8.372 3.578 17.319 6.01 26.618 7.372-.409 1.216-.729 2.502-.84 3.939-1.102 14.813-3.016 29.748 3.051 43.654zm43.721 19.083c4.294-.456 8.223-1.404 11.934-2.8 4.218 18.225 16.492 34.964 10.74 54.123-4.719 15.715-15.067 31.866-26.997 44.672-11.264-13.894-21.07-28.62-29.557-44.561-7.07-13.289 6.848-36.166 14.286-52.608 6.627 1.49 13.557 1.792 19.595 1.175zm-17.669-65.402h22.167c1.657 10.362 7.209 35.113-7.234 36.591-5.518.564-13.983.733-15.639-5.05-2.503-8.709.111-20.025.77-28.875.076-.949.012-1.816-.064-2.665zm51.159-.686c8.621-.949 16.894-2.985 24.78-5.836-1.564 25.31-7.245 51.054-15.482 75.591-4.131-8.356-8.675-16.577-12.315-24.774-.028-.07-.069-.116-.105-.187 5.362-12.939 4.866-29.707 3.122-44.794zm10.85-159.738h26.706c11.445 0 21.811-4.597 29.359-12.026v64.791c0 43.322-35.333 78.569-78.774 78.569H489.12c-43.441 0-78.774-35.246-78.774-78.568v-57.635c5.666 3.067 12.404 4.869 19.564 4.869h26.737c23.1 0 41.826-18.683 41.826-41.723 0-23.034-18.726-41.716-41.826-41.716h-26.734a41.548 41.548 0 00-19.787 4.98l.221-10.758c14.969-12.561 16.847-43.304 15.377-64.82.519-.698 1.126-1.321 1.669-2.007 14.21 4.154 30.427 4.003 43.897 3.356 27.854-1.343 54.431-3.438 82.397-2.594 15.609.472 29.435-2.601 40.676-9.914.064.058.134.111.198.169-4.859 17.244-3.225 37.161 4.172 52.468 4.264 8.82 11.917 17.064 21.023 22.539v18.607c-7.548-7.43-17.914-12.026-29.359-12.026h-26.706c-23.1 0-41.826 18.682-41.826 41.716 0 23.04 18.726 41.722 41.826 41.722zm207.774 372.136c-4.457-8.11-9.881-16.251-15.966-24.035 1.476-1.181 2.998-2.322 4.456-3.526 4.153 9.303 10.302 18.158 11.51 27.561zm25.894-61.027c-.612.692-1.411.722-2.28.471.244-.262.502-.518.746-.773.507.111 1.015.256 1.535.303zm39.318 9.728c-8.05 0-19.477-5.37-23.871-13.742 11.101-13.755 17.162 7.715 23.871 13.742zm10.751-76.451c-.829.57-1.687 1.175-2.556 1.786.391-.646.753-1.315 1.137-1.967.443.111.91.181 1.418.181zm66.932-41.914l-53.452 36.225c-3.867.278-7.461-.368-10.984-1.275 7.378-12.975 14.088-26.374 19.932-40.226 15.244.849 29.978 2.938 44.503 5.276zM657.826 839.517c42.368-62.05 65.369-135.778 83.05-208.564 2.585-10.624-5.891-17.629-14.291-18.066-31.809-12.643-63.567-24.559-96.485-33.559 11.859-17.28 18.818-38.15 18.818-60.625V381.795c2.269-.483 4.521-1.152 6.731-2.164 35.129-16.122 10.798-78.697-9.362-97.163-6.102-5.586-13.534-4.702-18.743-.885-.052-.053-.111-.098-.163-.151 6.201-3.683 9.654-11.025 4.165-18.554-33.367-45.766-94.577-14.336-139.185-32.989-26.828-11.224-86.859-36.934-102.131 4.236-5.116 13.794-3.937 28.822 1.534 42.158-.869.325-1.75.663-2.636 1.187-20.843 12.317-34.09 35.461-34.581 59.542-.327 15.924 11.083 35.13 26.63 42.403v139.286c0 21.422 6.375 41.355 17.238 58.147-35.258 11.677-67.365 31.098-100.422 47.859-6.68 3.387-8.302 9.391-6.848 14.872a16.645 16.645 0 00.156 3.098c10.408 70.521 33.27 133.898 70.237 192.189C241.847 777.645 158.99 655.614 158.99 514.628c0-195.699 159.625-354.907 355.837-354.907s355.838 159.208 355.838 354.907c0 144.978-87.652 269.853-212.838 324.887zm240.378-363.571c-.088-.064-.216-.116-.338-.169-.052-.517-.122-1.029-.181-1.547.653.249 1.068.652.519 1.716zm3.027 9.046c-.945-.272-1.843-.634-2.736-1.006-.105-1.297-.181-2.606-.298-3.904 1.365.769 2.474 1.786 3.034 3.234v1.676zm1.691 10.38l-3.78-2.915c-.064-1.111-.18-2.205-.25-3.31 2.94.6 5.349 1.716 4.031 6.225zm-3.44 5.546c-.047-1.303-.041-2.613-.099-3.909 2.303 1.541 4.124 3.467 4.55 6.422l-1.01.669-3.441-3.182zm.413 14.592c.029.378-.094.703-.116 1.058.006-.378.028-.757.028-1.14.03.028.059.058.088.082zm-.163-4.765c-.012-1.013-.058-2.014-.076-3.025a62.53 62.53 0 002.614 2.077l-1.039 2.357-1.5-1.408zm9.572-202.804c17.139 24.476 24.56 53.992 29.256 84.497l-43.71 37.556c1.009-16.425 7.064-36.206 2.368-54.656l-7.064-34.537c14.787-6.028 13.778-21.458 19.151-32.86zm86.417 175.376c-18.177-12.747 1.009-29.172-4.037-44.276-25.218-18.094 8.074-54.987-24.885-69.404-.333-15.773 1.691-35.2-16.13-44.265 0-10.386.326-21.12-3.383-30.504-3.681-7.703-11.731-11.066-18.469-15.104-4.392-14.075-3.383-30.168-15.47-41.228-21.858-3.025-12.442-29.859-29.604-39.233-12.77-2.013-14.106-13.09-18.825-22.463-8.733-14.097-22.511-22.807-38.64-23.488l-8.756-17.768c-9.742-7.034-18.825-15.773-32.276-13.743-9.742-16.762-27.557-23.813-46.06-24.82l-11.108-16.099c-9.053-9.373-23.841-2.664-34.947-2.339-16.807-15.756-34.978-32.873-60.522-23.483l-20.843-12.724-28.239 4.014c-10.425-5.376-21.525-9.727-34.628-9.059-26.221 9.403-57.844-9.053-81.714 6.72l-26.547-5.702c-9.089 3.02-16.812 8.709-25.895 12.056-23.876-10.398-42.707 6.382-59.507 20.124l-23.52-4.031c-11.434.68-16.153 12.084-22.54 20.124-17.815 1.35-36.646 4.031-46.055 22.47-5.378-.669-10.098 1.006-15.143.681-13.429 5.032-24.886 16.418-29.255 29.835-8.044-1.006-15.114 1.35-21.852 4.027-12.413 7.034-20.493 19.776-24.856 32.186-7.42 1.343-14.461 6.051-19.507 12.067-7.753 12.411-8.733 31.523-27.231 33.867-13.808 13.073-4.393 40.588-26.577 44.94-13.096 9.053-7.723 25.815-11.405 38.563-19.512 6.708-14.816 28.835-17.821 43.601-22.534 10.379-17.162 34.856-16.835 54.644l-11.428 13.754c-6.387 14.406 13.452 28.835-3.033 39.569-7.391 12.068-1.01 23.471 4.043 34.531l-9.06 12.073c-7.069 16.436 21.175 27.159 3.354 41.908 1.01 9.727 3.687 18.792 9.743 26.508 4.718 7.697-7.397 12.393-5.706 20.776.659 8.396 4.013 15.104 10.425 21.131 4.042 6.366-3.384 12.067-3.384 19.107.356 11.741 11.108 19.782 17.162 28.178-1.009 2.682-4.718 4.341-3.382 8.041-1.663 13.073 7.747 23.128 17.844 29.853 0 4.014-1.365 7.372-3.354 10.38-.683 6.371.653 13.76 5.705 18.45 19.151.325 9.41 19.449 15.471 29.841 5.046 7.716 12.412 15.761 21.851 17.106-6.411 22.12 18.148 30.847 31.267 42.589-.683 26.822 38.991 18.094 33.945 44.928 3.027 8.709 12.442 10.397 20.189 8.047 13.096-7.034 12.769 7.716 14.432 15.43 5.378 8.721 14.467 13.061 23.55 12.066l-1.01.682 17.138 1.675c8.756 13.411 23.218 20.107 38.006 22.464 12.442 8.722 25.211 19.444 41.662 16.081 10.097 17.106 29.961 23.477 48.435 22.481 6.382 8.041 15.138 13.744 25.894 13.074 12.111-10.072 18.498 7.715 28.24 9.716 7.39 1.688 15.137-.326 21.169-4.015 6.056-2.013 10.098 6.371 16.153 8.041 16.123 12.067 31.92-10.734 47.396 4.032 10.425-1.35 20.516-3.363 28.268-10.74 8.377.343 14.106 6.039 22.506 5.702 13.452 1.343 17.815-21.12 32.282-9.728 9.736.681 18.825-3.008 23.514-11.061 15.143 0 29.611-2.344 41.038-10.397 4.013-18.438 23.847-6.028 33.945-13.079 10.418-19.101 32.959-8.041 45.401-22.464 6.055-18.774 24.53-7.372 37.655-12.736 12.11-5.37 15.47-16.436 18.825-27.497 8.072 1.007 19.156 5.359 26.547-.668 4.037-5.376 5.378-11.415 4.719-18.775 7.368-7.389 19.157-7.716 26.547-16.099 1.343-16.093 18.178-20.794 29.255-29.515 6.738-7.034 10.418-15.087 8.074-25.141.653-4.695 6.387-1.006 8.733-3.025 13.778-7.372 16.806-22.801 16.153-36.218 4.363-4.684 13.095-3.346 16.123-10.723 5.046-8.053 1.691-16.763-.653-24.82 11.404-6.028 19.839-17.768 18.469-31.511-9.736-9.391 9.414-12.754 11.107-21.475 7.07-8.377.653-18.775-.683-27.485 7.397-6.039 13.125-16.774 12.116-26.508-20.843-16.081 11.433-26.147 6.387-43.578-8.733-9.047-1.015-18.112 4.037-26.496 5.046-9.711-1.336-19.102-7.071-26.49 3.36-9.036 13.125-17.432 7.071-28.155z" fill="#2c2c2c"/><path d="M514.827 833.685c-8.056 0-14.584 6.511-14.584 14.545s6.528 14.545 14.584 14.545 14.584-6.51 14.584-14.545c0-8.034-6.528-14.545-14.584-14.545z" fill="#2c2c2c"/></svg>